HIERARCHY
ROOT root
{
	OFFSET 0.000000 0.000000 0.000000
	CHANNELS 6 Xposition Yposition Zposition Zrotation Yrotation Xrotation
	JOINT lhip
	{
		OFFSET 0.058581 -0.082280 -0.017664
		CHANNELS 3 Zrotation Yrotation Xrotation
		JOINT lknee
		{
			OFFSET 0.043451 -0.386469 0.008037
			CHANNELS 3 Zrotation Yrotation Xrotation
			JOINT lankle
			{
				OFFSET -0.014790 -0.426874 -0.037428
				CHANNELS 3 Zrotation Yrotation Xrotation
				JOINT ltoe
				{
					OFFSET 0.041054 -0.060286 0.122042
					CHANNELS 3 Zrotation Yrotation Xrotation
					End Site
					{
						OFFSET 0.000000 0.000000 0.000000
					}
				}
			}
		}
	}
	JOINT rhip
	{
		OFFSET -0.060310 -0.090513 -0.013543
		CHANNELS 3 Zrotation Yrotation Xrotation
		JOINT rknee
		{
			OFFSET -0.043257 -0.383688 -0.004843
			CHANNELS 3 Zrotation Yrotation Xrotation
			JOINT rankle
			{
				OFFSET 0.019056 -0.420046 -0.034562
				CHANNELS 3 Zrotation Yrotation Xrotation
				JOINT rtoe
				{
					OFFSET -0.034840 -0.062106 0.130323
					CHANNELS 3 Zrotation Yrotation Xrotation
					End Site
					{
						OFFSET 0.000000 0.000000 0.000000
					}
				}
			}
		}
	}
	JOINT lowerback
	{
		OFFSET 0.004439 0.124404 -0.038385
		CHANNELS 3 Zrotation Yrotation Xrotation
		JOINT upperback
		{
			OFFSET 0.004488 0.137956 0.026820
			CHANNELS 3 Zrotation Yrotation Xrotation
			JOINT chest
			{
				OFFSET -0.002265 0.056032 0.002855
				CHANNELS 3 Zrotation Yrotation Xrotation
				JOINT lowerneck
				{
					OFFSET -0.013390 0.211636 -0.033468
					CHANNELS 3 Zrotation Yrotation Xrotation
					JOINT upperneck
					{
						OFFSET 0.010113 0.088937 0.050410
						CHANNELS 3 Zrotation Yrotation Xrotation
						End Site
						{
							OFFSET 0.000000 0.000000 0.000000
						}
					}
				}
				JOINT lclavicle
				{
					OFFSET 0.071702 0.114000 -0.018898
					CHANNELS 3 Zrotation Yrotation Xrotation
					JOINT lshoulder
					{
						OFFSET 0.122921 0.045205 -0.019046
						CHANNELS 3 Zrotation Yrotation Xrotation
						JOINT lelbow
						{
							OFFSET 0.255332 -0.015649 -0.022946
							CHANNELS 3 Zrotation Yrotation Xrotation
							JOINT lwrist
							{
								OFFSET 0.265709 0.012698 -0.007375
								CHANNELS 3 Zrotation Yrotation Xrotation
								End Site
								{
									OFFSET 0.000000 0.000000 0.000000
								}
							}
						}
					}
				}
				JOINT rclavicle
				{
					OFFSET -0.082954 0.112472 -0.023707
					CHANNELS 3 Zrotation Yrotation Xrotation
					JOINT rshoulder
					{
						OFFSET -0.113228 0.046853 -0.008472
						CHANNELS 3 Zrotation Yrotation Xrotation
						JOINT relbow
						{
							OFFSET -0.260127 -0.014369 -0.031269
							CHANNELS 3 Zrotation Yrotation Xrotation
							JOINT rwrist
							{
								OFFSET -0.269108 0.006794 -0.006027
								CHANNELS 3 Zrotation Yrotation Xrotation
								End Site
								{
									OFFSET 0.000000 0.000000 0.000000
								}
							}
						}
					}
				}
			}
		}
	}
}
MOTION
Frames: 8
Frame Time: 0.033333
-0.002886 -0.112588 0.945339 -178.389151 0.637058 91.968301 10.716623 2.586458 -18.994465 -7.233027 -1.131570 27.628216 2.378718 4.861294 -13.922382 0.000000 -0.000000 0.000000 -11.647318 -8.019616 -18.610389 0.061521 -5.980896 24.519787 2.912939 -3.790844 -11.430808 0.000000 -0.000000 0.000000 1.324748 3.991876 19.087883 3.410275 -5.092614 7.010015 2.326253 0.342341 -4.377249 0.279593 10.177473 11.086348 4.155703 1.807327 17.782392 -14.679634 -30.488132 5.101764 -82.171706 -30.712302 29.644623 2.306506 -12.138169 15.798658 -5.303633 8.786555 -32.438840 17.414404 28.520057 9.271768 74.591553 33.305169 18.209350 -12.731191 5.346681 -15.599067 16.406196 4.283209 -49.341277 
-0.003165 -0.112425 0.945205 -178.357026 0.612142 91.983422 10.738419 2.644525 -19.028778 -7.356353 -1.074890 27.690207 2.401758 4.763434 -13.904571 0.000000 -0.000000 0.000000 -11.723215 -8.041226 -18.619042 0.024809 -5.856898 24.570160 2.974359 -3.610358 -11.392351 0.000000 -0.000000 0.000000 1.334241 4.031183 19.161054 3.424531 -5.078210 6.743858 2.389823 0.382371 -4.211449 0.236846 10.113348 10.860569 4.155087 1.727487 18.091876 -14.602446 -30.610273 5.181112 -82.203672 -30.891436 29.548790 2.298017 -11.918303 15.972876 -5.688226 8.615154 -32.427984 17.401314 28.345718 9.337166 74.563713 33.383968 18.097440 -12.617451 5.361366 -15.375502 16.490121 4.563709 -49.673221 
-0.003400 -0.112217 0.945347 -178.276337 0.593282 91.955534 10.686151 2.672297 -18.971910 -7.366567 -1.138701 27.656584 2.326590 4.724872 -13.986314 0.000000 -0.000000 0.000000 -11.741753 -8.179224 -18.544496 -0.005226 -5.923165 24.560946 3.029388 -3.564380 -11.428916 0.000000 -0.000000 0.000000 1.374334 4.053465 19.165384 3.443276 -5.129695 6.779885 2.439464 0.408965 -4.247616 0.095313 10.193191 10.946142 4.264412 1.828446 18.096218 -14.670524 -30.789716 5.239930 -82.167879 -30.873979 29.458838 2.475261 -11.830473 15.715799 -5.722191 8.683905 -31.896191 17.528097 28.460473 9.446062 74.374801 33.257178 17.863112 -12.697283 5.407095 -15.504143 17.115963 4.873595 -49.553227 
-0.003923 -0.112051 0.945470 -178.217320 0.569544 92.006139 10.610860 2.714598 -19.002965 -7.390796 -1.182266 27.647973 2.402861 4.712023 -13.972082 0.000000 -0.000000 0.000000 -11.769253 -8.216991 -18.584064 -0.049702 -5.886358 24.575271 3.039605 -3.561423 -11.399915 0.000000 -0.000000 0.000000 1.448210 4.069603 19.172355 3.418991 -5.108263 6.649068 2.481165 0.397078 -4.213569 -0.054254 10.069457 11.035989 4.386843 1.941912 18.032741 -14.459583 -30.793348 5.150525 -82.436589 -30.877380 29.480107 2.448156 -11.793746 15.543249 -4.771939 9.518532 -31.543003 17.484630 28.418141 9.502068 74.404510 33.169041 17.651781 -12.562542 5.594433 -15.920134 16.522440 4.901421 -49.730255 
-0.004083 -0.111827 0.945529 -178.196651 0.510166 91.985827 10.557017 2.737814 -18.942489 -7.437165 -1.212338 27.585856 2.434043 4.698670 -13.984912 0.000000 -0.000000 0.000000 -11.867194 -8.225196 -18.501460 -0.020110 -5.922681 24.505358 3.055410 -3.614647 -11.404178 0.000000 -0.000000 0.000000 1.417465 4.134225 19.205887 3.432645 -5.063338 6.618769 2.530807 0.379188 -4.211401 -0.143771 10.039736 11.129388 4.444421 1.927062 17.963531 -14.453171 -30.909134 5.175692 -82.479882 -30.993192 29.577845 2.330352 -11.601367 15.505480 -4.332425 9.853397 -31.415416 17.515622 28.421876 9.456706 74.340284 33.007715 17.579586 -12.462739 5.692176 -16.125462 16.115303 5.085389 -50.257311 
-0.004419 -0.111563 0.945512 -178.135268 0.467544 92.006714 10.470384 2.777074 -18.925508 -7.443502 -1.317312 27.499405 2.390314 4.664598 -13.904037 0.000000 -0.000000 0.000000 -11.904353 -8.253725 -18.457792 -0.076239 -5.917551 24.435528 3.029497 -3.581527 -11.411918 0.000000 -0.000000 0.000000 1.487462 4.146195 19.172202 3.434230 -5.093351 6.665322 2.503209 0.430180 -4.229760 -0.216175 10.118139 11.138332 4.463491 1.913418 17.991239 -14.297061 -31.041167 5.076338 -82.489919 -31.055305 29.569523 2.080146 -11.436822 15.443196 -3.756877 10.130168 -31.249408 17.559400 28.452564 9.560233 74.451649 32.947900 17.478296 -12.736791 5.835160 -16.579766 15.566277 4.906964 -50.225933 
-0.004869 -0.111252 0.945527 -177.922696 0.462329 92.009354 10.442708 2.784343 -18.963819 -7.480817 -1.415426 27.527812 2.400932 4.581774 -13.910113 0.000000 -0.000000 0.000000 -11.974464 -8.367884 -18.352610 -0.057348 -5.990087 24.391970 3.115067 -3.544582 -11.417615 0.000000 -0.000000 0.000000 1.619496 4.111713 19.198934 3.461714 -5.220215 6.652961 2.492755 0.391662 -4.267833 -0.235798 10.153341 11.167800 4.455780 1.981907 18.048926 -14.267271 -31.100623 5.084908 -82.534641 -31.042452 29.547424 2.246687 -11.407728 15.374387 -3.536917 10.486840 -31.084242 17.578055 28.345589 9.535434 74.511567 32.899396 17.436906 -12.763860 5.934271 -16.507711 15.608137 4.944032 -50.333585 
-0.005328 -0.110952 0.945481 -177.835806 0.421295 92.060336 10.412202 2.798504 -18.974720 -7.595411 -1.485197 27.400397 2.294231 4.590770 -13.886201 0.000000 -0.000000 0.000000 -12.066121 -8.513798 -18.399258 0.018326 -5.949075 24.433205 3.155450 -3.563618 -11.383621 0.000000 -0.000000 0.000000 1.659531 4.107994 19.110071 3.452160 -5.297829 6.652628 2.500895 0.475790 -4.198117 -0.392266 10.086972 11.208508 4.535511 2.050902 17.901282 -14.140535 -31.093505 4.850465 -82.592299 -30.993961 29.605276 2.155906 -11.422803 15.146329 -2.739168 11.357997 -30.896835 17.508807 28.378791 9.407402 74.598796 32.677048 17.400359 -12.758644 6.161071 -16.868504 15.759662 5.005699 -50.899375 
